<svg width="200" height="200" viewBox="0 0 200 200" fill="none" xmlns="http://www.w3.org/2000/svg">
<g clip-path="url(#clip0_2048_7380)">
<path d="M99.5 44.6562C88.6529 44.6563 78.0495 47.8728 69.0304 53.8991C60.0114 59.9254 52.982 68.4908 48.831 78.5122C44.68 88.5336 43.5939 99.5608 45.7101 110.199C47.8262 120.838 53.0496 130.61 60.7196 138.28C68.3896 145.95 78.1619 151.174 88.8005 153.29C99.4392 155.406 110.466 154.32 120.488 150.169C130.509 146.018 139.075 138.989 145.101 129.97C151.127 120.951 154.344 110.347 154.344 99.5C154.324 84.9607 148.539 71.0227 138.258 60.7419C127.977 50.461 114.039 44.6764 99.5 44.6562ZM99.5 136.062C92.2686 136.062 85.1996 133.918 79.187 129.901C73.1743 125.883 68.488 120.173 65.7207 113.492C62.9533 106.811 62.2293 99.4594 63.64 92.367C65.0508 85.2746 68.5331 78.7598 73.6464 73.6464C78.7598 68.5331 85.2746 65.0508 92.367 63.64C99.4594 62.2293 106.811 62.9533 113.492 65.7207C120.173 68.488 125.883 73.1743 129.901 79.187C133.918 85.1996 136.062 92.2686 136.062 99.5C136.062 109.197 132.21 118.497 125.354 125.354C118.497 132.21 109.197 136.062 99.5 136.062ZM90.3594 23.3281V11.1406C90.3594 8.71638 91.3224 6.39143 93.0366 4.67723C94.7508 2.96303 97.0758 2 99.5 2C101.924 2 104.249 2.96303 105.963 4.67723C107.678 6.39143 108.641 8.71638 108.641 11.1406V23.3281C108.641 25.7524 107.678 28.0773 105.963 29.7915C104.249 31.5057 101.924 32.4688 99.5 32.4688C97.0758 32.4688 94.7508 31.5057 93.0366 29.7915C91.3224 28.0773 90.3594 25.7524 90.3594 23.3281ZM146.879 52.1211C146.027 51.2719 145.351 50.2628 144.889 49.1518C144.428 48.0407 144.19 46.8495 144.19 45.6465C144.19 44.4434 144.428 43.2522 144.889 42.1412C145.351 41.0301 146.027 40.0211 146.879 39.1719L155.486 30.5645C157.204 28.8473 159.532 27.8826 161.961 27.8826C164.389 27.8826 166.718 28.8473 168.436 30.5645C170.153 32.2816 171.117 34.6106 171.117 37.0391C171.117 39.4675 170.153 41.7965 168.436 43.5137L159.828 52.1211C158.977 52.9692 157.967 53.6412 156.856 54.0986C155.745 54.5561 154.555 54.7901 153.354 54.7871C150.93 54.7766 148.607 53.82 146.879 52.1211ZM197 99.5C197 101.924 196.037 104.249 194.323 105.963C192.609 107.678 190.284 108.641 187.859 108.641H175.672C173.248 108.641 170.923 107.678 169.208 105.963C167.494 104.249 166.531 101.924 166.531 99.5C166.531 97.0758 167.494 94.7508 169.208 93.0366C170.923 91.3224 173.248 90.3594 175.672 90.3594H187.859C190.284 90.3594 192.609 91.3224 194.323 93.0366C196.037 94.7508 197 97.0758 197 99.5ZM168.436 155.486C169.288 156.336 169.964 157.345 170.425 158.456C170.887 159.567 171.124 160.758 171.124 161.961C171.124 163.164 170.887 164.355 170.425 165.466C169.964 166.577 169.288 167.586 168.436 168.436C167.595 169.298 166.587 169.979 165.474 170.437C164.36 170.896 163.165 171.122 161.961 171.102C160.759 171.105 159.569 170.871 158.458 170.413C157.347 169.956 156.337 169.284 155.486 168.436L146.879 159.828C145.162 158.111 144.197 155.782 144.197 153.354C144.197 150.925 145.162 148.596 146.879 146.879C148.596 145.162 150.925 144.197 153.354 144.197C155.782 144.197 158.111 145.162 159.828 146.879L168.436 155.486ZM108.641 175.672V187.859C108.641 190.284 107.678 192.609 105.963 194.323C104.249 196.037 101.924 197 99.5 197C97.0758 197 94.7508 196.037 93.0366 194.323C91.3224 192.609 90.3594 190.284 90.3594 187.859V175.672C90.3594 173.248 91.3224 170.923 93.0366 169.208C94.7508 167.494 97.0758 166.531 99.5 166.531C101.924 166.531 104.249 167.494 105.963 169.208C107.678 170.923 108.641 173.248 108.641 175.672ZM52.1211 146.879C52.9732 147.728 53.6494 148.737 54.1107 149.848C54.5721 150.959 54.8095 152.15 54.8095 153.354C54.8095 154.557 54.5721 155.748 54.1107 156.859C53.6494 157.97 52.9732 158.979 52.1211 159.828L43.5137 168.436C42.6626 169.284 41.6527 169.956 40.5418 170.413C39.4308 170.871 38.2405 171.105 37.0391 171.102C35.8351 171.122 34.6398 170.896 33.5264 170.437C32.413 169.979 31.4051 169.298 30.5645 168.436C29.7123 167.586 29.0362 166.577 28.5748 165.466C28.1135 164.355 27.876 163.164 27.876 161.961C27.876 160.758 28.1135 159.567 28.5748 158.456C29.0362 157.345 29.7123 156.336 30.5645 155.486L39.1719 146.879C40.0211 146.027 41.0301 145.351 42.1412 144.889C43.2522 144.428 44.4434 144.19 45.6465 144.19C46.8495 144.19 48.0407 144.428 49.1518 144.889C50.2628 145.351 51.2719 146.027 52.1211 146.879ZM23.3281 108.641H11.1406C8.71638 108.641 6.39143 107.678 4.67723 105.963C2.96303 104.249 2 101.924 2 99.5C2 97.0758 2.96303 94.7508 4.67723 93.0366C6.39143 91.3224 8.71638 90.3594 11.1406 90.3594H23.3281C25.7524 90.3594 28.0773 91.3224 29.7915 93.0366C31.5057 94.7508 32.4688 97.0758 32.4688 99.5C32.4688 101.924 31.5057 104.249 29.7915 105.963C28.0773 107.678 25.7524 108.641 23.3281 108.641ZM30.5645 43.5137C28.8473 41.7965 27.8826 39.4675 27.8826 37.0391C27.8826 34.6106 28.8473 32.2816 30.5645 30.5645C32.2816 28.8473 34.6106 27.8826 37.0391 27.8826C39.4675 27.8826 41.7965 28.8473 43.5137 30.5645L52.1211 39.1719C52.9732 40.0211 53.6494 41.0301 54.1107 42.1412C54.5721 43.2522 54.8095 44.4434 54.8095 45.6465C54.8095 46.8495 54.5721 48.0407 54.1107 49.1518C53.6494 50.2628 52.9732 51.2719 52.1211 52.1211C50.393 53.82 48.0697 54.7766 45.6465 54.7871C44.445 54.7901 43.2548 54.5561 42.1438 54.0986C41.0328 53.6412 40.0229 52.9692 39.1719 52.1211L30.5645 43.5137Z" fill="#8B8C95"/>
</g>
<defs>
<clipPath id="clip0_2048_7380">
<rect width="195" height="195" fill="white" transform="translate(2 2)"/>
</clipPath>
</defs>
</svg>
